# xmcd
#
# Track frame offsets: 
#        150
#        15793
#        29830
#        45064
#        59336
#        74600
#        89815
#        105206
#        120647
#        136529
#        151382
#        168303
#        183332
#        196721
#        211549
#        226962
#        242423
#        258270
#        272804
#        290250
#        305259
#        319063
#        335949
#
# Disc length: 4680 seconds
#
# Revision: 0
# Processed by: cddbd v1.5.2PL0 Copyright (c) Steve Scherf et al.
# Submitted via: ExactAudioCopy v1.1
#
DISCID=30124617
DTITLE=Various Artist - VTM 30 - 30 Jaar Muziek - CD 2 - 1999-2008
DYEAR=2019
DGENRE=Pop
TTITLE0=Mozaïek and Walter Grootaers - Leef
TTITLE1=Brahim - Turn The Music Up
TTITLE2=K3 - Heyah Mama
TTITLE3=M-Kids - Indianendans
TTITLE4=Wim Soutaer - Allemaal
TTITLE5=Udo - Isn't It Time
TTITLE6=Milk Inc - In My Eyes
TTITLE7=Dynamite - De Pizza Dans
TTITLE8=Willy Sommers - Laat De Zon In Je Hart
TTITLE9=Joeri - Ya 'Bout To Find Out
TTITLE10=Born - Fools Rush In
TTITLE11=Katerine - New Day
TTITLE12=Belle Perez - Enamorada
TTITLE13=Peter Evrard - For You
TTITLE14=Star Academy - Fame
TTITLE15=T'NT - Al Wie Da Nie Springt
TTITLE16=Los Papagueros - Gran Hermano
TTITLE17=Sandrine - Goosebumps
TTITLE18=Biezebaaze - Loetsebollekezoetse
TTITLE19=Pim - Een Miljoen Vlinders
TTITLE20=Dean - So Many Ways
TTITLE21=Fixkes - Kvraagetaan
TTITLE22=Natalia - Without You
EXTD=
EXTT0=
EXTT1=
EXTT2=
EXTT3=
EXTT4=
EXTT5=
EXTT6=
EXTT7=
EXTT8=
EXTT9=
EXTT10=
EXTT11=
EXTT12=
EXTT13=
EXTT14=
EXTT15=
EXTT16=
EXTT17=
EXTT18=
EXTT19=
EXTT20=
EXTT21=
EXTT22=
PLAYORDER=
